# xmcd
#
# Track frame offsets: 
#        150
#        12929
#        24971
#        35892
#        50733
#        64504
#        75295
#        89417
#        103149
#        115968
#        129206
#        142159
#        153302
#        164804
#        173979
#        186291
#        196092
#        206803
#        217875
#        232946
#
# Disc length: 3223 seconds
#
# Revision: 0
# Processed by: cddbd v1.5.2PL0 Copyright (c) Steve Scherf et al.
# Submitted via: ExactAudioCopy v1.3
#
DISCID=150c9514
DTITLE=Little Jimmy Dickens, 1954 - 1957 - 4 Classic Albums Plus Single
DTITLE=s 1954-62_CD1
DYEAR=2015
DGENRE=Country
TTITLE0=Little Jimmy Dickens, "The Old Country Curch" 1954 - No Tears 
TTITLE0=In Heaven
TTITLE1=Little Jimmy Dickens, "The Old Country Curch" 1954 - He Spoke 
TTITLE1=Not A Ward
TTITLE2=Little Jimmy Dickens, "The Old Country Curch" 1954 - That Litt
TTITLE2=le Old Country House
TTITLE3=Little Jimmy Dickens, "The Old Country Curch" 1954 - Take Up T
TTITLE3=hy Cross
TTITLE4=Little Jimmy Dickens, "The Old Country Curch" 1954 - Just A Cl
TTITLE4=oser Walk With Thee
TTITLE5=Little Jimmy Dickens, "The Old Country Curch" 1954 - Old Count
TTITLE5=ry Preacher
TTITLE6=Little Jimmy Dickens, "The Old Country Curch" 1954 - Take My H
TTITLE6=and Precious Lord
TTITLE7=Little Jimmy Dickens, "The Old Country Curch" 1954 - I Shall N
TTITLE7=ot Be Moved
TTITLE8=Little Jimmy Dickens, "Rasin' The Dickens" 1957 - Take An Old 
TTITLE8=Cold 'Tater (And Wait)
TTITLE9=Little Jimmy Dickens, "Rasin' The Dickens" 1957 - Country Boy
TTITLE10=Little Jimmy Dickens, "Rasin' The Dickens" 1957 - I Can't Hel
TTITLE10=p It
TTITLE11=Little Jimmy Dickens, "Rasin' The Dickens" 1957 - I'm Little 
TTITLE11=But I'm Loud
TTITLE12=Little Jimmy Dickens, "Rasin' The Dickens" 1957 - We Could
TTITLE13=Little Jimmy Dickens, "Rasin' The Dickens" 1957 - Raisin' The
TTITLE13=Dickens
TTITLE14=Little Jimmy Dickens, "Rasin' The Dickens" 1957 - A-Sleepin' 
TTITLE14=At The Foot Of The Bed
TTITLE15=Little Jimmy Dickens, "Rasin' The Dickens" 1957 - Jambalaya
TTITLE16=Little Jimmy Dickens, "Rasin' The Dickens" 1957 - Out Behind 
TTITLE16=The Barn
TTITLE17=Little Jimmy Dickens, "Rasin' The Dickens" 1957 - Wabash Cann
TTITLE17=on Ball
TTITLE18=Little Jimmy Dickens, "Rasin' The Dickens" 1957 - The Tramp O
TTITLE18=n The Street
TTITLE19=Little Jimmy Dickens, "Rasin' The Dickens" 1957 - Red Wing
EXTD=
EXTT0=
EXTT1=
EXTT2=
EXTT3=
EXTT4=
EXTT5=
EXTT6=
EXTT7=
EXTT8=
EXTT9=
EXTT10=
EXTT11=
EXTT12=
EXTT13=
EXTT14=
EXTT15=
EXTT16=
EXTT17=
EXTT18=
EXTT19=
PLAYORDER=
